<svg id="visual" viewBox="0 0 1200 150" width="1200" height="150" xmlns="http://www.w3.org/2000/svg" xmlns:xlink="http://www.w3.org/1999/xlink" version="1.1"><path d="M0 19L16.7 18.8C33.3 18.7 66.7 18.3 100 18.2C133.3 18 166.7 18 200 18.5C233.3 19 266.7 20 300 20.7C333.3 21.3 366.7 21.7 400 20.3C433.3 19 466.7 16 500 15.8C533.3 15.7 566.7 18.3 600 19.8C633.3 21.3 666.7 21.7 700 20.8C733.3 20 766.7 18 800 16.3C833.3 14.7 866.7 13.3 900 14.3C933.3 15.3 966.7 18.7 1000 19.2C1033.3 19.7 1066.7 17.3 1100 17.2C1133.3 17 1166.7 19 1183.3 20L1200 21L1200 0L1183.3 0C1166.7 0 1133.3 0 1100 0C1066.7 0 1033.3 0 1000 0C966.7 0 933.3 0 900 0C866.7 0 833.3 0 800 0C766.7 0 733.3 0 700 0C666.7 0 633.3 0 600 0C566.7 0 533.3 0 500 0C466.7 0 433.3 0 400 0C366.7 0 333.3 0 300 0C266.7 0 233.3 0 200 0C166.7 0 133.3 0 100 0C66.7 0 33.3 0 16.7 0L0 0Z" fill="#f8f8f8"></path><path d="M0 48L16.7 47.7C33.3 47.3 66.7 46.7 100 43.7C133.3 40.7 166.7 35.3 200 34.3C233.3 33.3 266.7 36.7 300 37.8C333.3 39 366.7 38 400 37.8C433.3 37.7 466.7 38.3 500 38.3C533.3 38.3 566.7 37.7 600 37.7C633.3 37.7 666.7 38.3 700 38.3C733.3 38.3 766.7 37.7 800 38.2C833.3 38.7 866.7 40.3 900 42.7C933.3 45 966.7 48 1000 48.2C1033.3 48.3 1066.7 45.7 1100 44.7C1133.3 43.7 1166.7 44.3 1183.3 44.7L1200 45L1200 19L1183.3 18C1166.7 17 1133.3 15 1100 15.2C1066.7 15.3 1033.3 17.7 1000 17.2C966.7 16.7 933.3 13.3 900 12.3C866.7 11.3 833.3 12.7 800 14.3C766.7 16 733.3 18 700 18.8C666.7 19.7 633.3 19.3 600 17.8C566.7 16.3 533.3 13.7 500 13.8C466.7 14 433.3 17 400 18.3C366.7 19.7 333.3 19.3 300 18.7C266.7 18 233.3 17 200 16.5C166.7 16 133.3 16 100 16.2C66.7 16.3 33.3 16.7 16.7 16.8L0 17Z" fill="#e9e9e9"></path><path d="M0 99L16.7 95C33.3 91 66.7 83 100 77.7C133.3 72.3 166.7 69.7 200 70.3C233.3 71 266.7 75 300 78.8C333.3 82.7 366.7 86.3 400 87.3C433.3 88.3 466.7 86.7 500 84.7C533.3 82.7 566.7 80.3 600 79.2C633.3 78 666.7 78 700 79.7C733.3 81.3 766.7 84.7 800 83.3C833.3 82 866.7 76 900 76.3C933.3 76.7 966.7 83.3 1000 86.3C1033.3 89.3 1066.7 88.7 1100 90.8C1133.3 93 1166.7 98 1183.3 100.5L1200 103L1200 43L1183.3 42.7C1166.7 42.3 1133.3 41.7 1100 42.7C1066.7 43.7 1033.3 46.3 1000 46.2C966.7 46 933.3 43 900 40.7C866.7 38.3 833.3 36.7 800 36.2C766.7 35.7 733.3 36.3 700 36.3C666.7 36.3 633.3 35.7 600 35.7C566.7 35.7 533.3 36.3 500 36.3C466.7 36.3 433.3 35.7 400 35.8C366.7 36 333.3 37 300 35.8C266.7 34.7 233.3 31.3 200 32.3C166.7 33.3 133.3 38.7 100 41.7C66.7 44.7 33.3 45.3 16.7 45.7L0 46Z" fill="#dbdbdb"></path><path d="M0 124L16.7 120.3C33.3 116.7 66.7 109.3 100 105.3C133.3 101.3 166.7 100.7 200 102.7C233.3 104.7 266.7 109.3 300 111.8C333.3 114.3 366.7 114.7 400 114.8C433.3 115 466.7 115 500 111.8C533.3 108.7 566.7 102.3 600 99.2C633.3 96 666.7 96 700 98.2C733.3 100.3 766.7 104.7 800 106.3C833.3 108 866.7 107 900 106.8C933.3 106.7 966.7 107.3 1000 110.3C1033.3 113.3 1066.7 118.7 1100 120.7C1133.3 122.7 1166.7 121.3 1183.3 120.7L1200 120L1200 101L1183.3 98.5C1166.7 96 1133.3 91 1100 88.8C1066.7 86.7 1033.3 87.3 1000 84.3C966.7 81.3 933.3 74.7 900 74.3C866.7 74 833.3 80 800 81.3C766.7 82.7 733.3 79.3 700 77.7C666.7 76 633.3 76 600 77.2C566.7 78.3 533.3 80.7 500 82.7C466.7 84.7 433.3 86.3 400 85.3C366.7 84.3 333.3 80.7 300 76.8C266.7 73 233.3 69 200 68.3C166.7 67.7 133.3 70.3 100 75.7C66.7 81 33.3 89 16.7 93L0 97Z" fill="#cccccc"></path><path d="M0 151L16.7 151C33.3 151 66.7 151 100 151C133.3 151 166.7 151 200 151C233.3 151 266.7 151 300 151C333.3 151 366.7 151 400 151C433.3 151 466.7 151 500 151C533.3 151 566.7 151 600 151C633.3 151 666.7 151 700 151C733.3 151 766.7 151 800 151C833.3 151 866.7 151 900 151C933.3 151 966.7 151 1000 151C1033.3 151 1066.7 151 1100 151C1133.3 151 1166.7 151 1183.3 151L1200 151L1200 118L1183.3 118.7C1166.7 119.3 1133.3 120.7 1100 118.7C1066.7 116.7 1033.3 111.3 1000 108.3C966.7 105.3 933.3 104.7 900 104.8C866.7 105 833.3 106 800 104.3C766.7 102.7 733.3 98.3 700 96.2C666.7 94 633.3 94 600 97.2C566.7 100.3 533.3 106.7 500 109.8C466.7 113 433.3 113 400 112.8C366.7 112.7 333.3 112.3 300 109.8C266.7 107.3 233.3 102.7 200 100.7C166.7 98.7 133.3 99.3 100 103.3C66.7 107.3 33.3 114.7 16.7 118.3L0 122Z" fill="#bebebe"></path></svg>