<svg id="visual" viewBox="0 0 1200 150" width="1200" height="150" xmlns="http://www.w3.org/2000/svg" xmlns:xlink="http://www.w3.org/1999/xlink" version="1.1"><path d="M0 55L16.7 54C33.3 53 66.7 51 100 47.8C133.3 44.7 166.7 40.3 200 40.8C233.3 41.3 266.7 46.7 300 48.7C333.3 50.7 366.7 49.3 400 49.7C433.3 50 466.7 52 500 49.2C533.3 46.3 566.7 38.7 600 40.3C633.3 42 666.7 53 700 59C733.3 65 766.7 66 800 61.8C833.3 57.7 866.7 48.3 900 43.3C933.3 38.3 966.7 37.7 1000 39.3C1033.3 41 1066.7 45 1100 49.2C1133.3 53.3 1166.7 57.7 1183.3 59.8L1200 62L1200 0L1183.3 0C1166.7 0 1133.3 0 1100 0C1066.7 0 1033.3 0 1000 0C966.7 0 933.3 0 900 0C866.7 0 833.3 0 800 0C766.7 0 733.3 0 700 0C666.7 0 633.3 0 600 0C566.7 0 533.3 0 500 0C466.7 0 433.3 0 400 0C366.7 0 333.3 0 300 0C266.7 0 233.3 0 200 0C166.7 0 133.3 0 100 0C66.7 0 33.3 0 16.7 0L0 0Z" fill="#bebebe"></path><path d="M0 72L16.7 74C33.3 76 66.7 80 100 78.3C133.3 76.7 166.7 69.3 200 69.3C233.3 69.3 266.7 76.7 300 78.3C333.3 80 366.7 76 400 77C433.3 78 466.7 84 500 82.2C533.3 80.3 566.7 70.7 600 71.3C633.3 72 666.7 83 700 86.8C733.3 90.7 766.7 87.3 800 80.8C833.3 74.3 866.7 64.7 900 62.8C933.3 61 966.7 67 1000 71.8C1033.3 76.7 1066.7 80.3 1100 83.3C1133.3 86.3 1166.7 88.7 1183.3 89.8L1200 91L1200 60L1183.3 57.8C1166.7 55.7 1133.3 51.3 1100 47.2C1066.7 43 1033.3 39 1000 37.3C966.7 35.7 933.3 36.3 900 41.3C866.7 46.3 833.3 55.7 800 59.8C766.7 64 733.3 63 700 57C666.7 51 633.3 40 600 38.3C566.7 36.7 533.3 44.3 500 47.2C466.7 50 433.3 48 400 47.7C366.7 47.3 333.3 48.7 300 46.7C266.7 44.7 233.3 39.3 200 38.8C166.7 38.3 133.3 42.7 100 45.8C66.7 49 33.3 51 16.7 52L0 53Z" fill="#cccccc"></path><path d="M0 96L16.7 98.2C33.3 100.3 66.7 104.7 100 103C133.3 101.3 166.7 93.7 200 92.5C233.3 91.3 266.7 96.7 300 96.7C333.3 96.7 366.7 91.3 400 91.5C433.3 91.7 466.7 97.3 500 96.5C533.3 95.7 566.7 88.3 600 89.3C633.3 90.3 666.7 99.7 700 104.2C733.3 108.7 766.7 108.3 800 103.2C833.3 98 866.7 88 900 87.2C933.3 86.3 966.7 94.7 1000 97.7C1033.3 100.7 1066.7 98.3 1100 99.3C1133.3 100.3 1166.7 104.7 1183.3 106.8L1200 109L1200 89L1183.3 87.8C1166.7 86.7 1133.3 84.3 1100 81.3C1066.7 78.3 1033.3 74.7 1000 69.8C966.7 65 933.3 59 900 60.8C866.7 62.7 833.3 72.3 800 78.8C766.7 85.3 733.3 88.7 700 84.8C666.7 81 633.3 70 600 69.3C566.7 68.7 533.3 78.3 500 80.2C466.7 82 433.3 76 400 75C366.7 74 333.3 78 300 76.3C266.7 74.7 233.3 67.3 200 67.3C166.7 67.3 133.3 74.7 100 76.3C66.7 78 33.3 74 16.7 72L0 70Z" fill="#dbdbdb"></path><path d="M0 138L16.7 138C33.3 138 66.7 138 100 136.5C133.3 135 166.7 132 200 132.5C233.3 133 266.7 137 300 138C333.3 139 366.7 137 400 136.5C433.3 136 466.7 137 500 136.2C533.3 135.3 566.7 132.7 600 132.3C633.3 132 666.7 134 700 134.8C733.3 135.7 766.7 135.3 800 135.3C833.3 135.3 866.7 135.7 900 136.7C933.3 137.7 966.7 139.3 1000 137.8C1033.3 136.3 1066.7 131.7 1100 130.7C1133.3 129.7 1166.7 132.3 1183.3 133.7L1200 135L1200 107L1183.3 104.8C1166.7 102.7 1133.3 98.3 1100 97.3C1066.7 96.3 1033.3 98.7 1000 95.7C966.7 92.7 933.3 84.3 900 85.2C866.7 86 833.3 96 800 101.2C766.7 106.3 733.3 106.7 700 102.2C666.7 97.7 633.3 88.3 600 87.3C566.7 86.3 533.3 93.7 500 94.5C466.7 95.3 433.3 89.7 400 89.5C366.7 89.3 333.3 94.7 300 94.7C266.7 94.7 233.3 89.3 200 90.5C166.7 91.7 133.3 99.3 100 101C66.7 102.7 33.3 98.3 16.7 96.2L0 94Z" fill="#e9e9e9"></path><path d="M0 151L16.7 151C33.3 151 66.7 151 100 151C133.3 151 166.7 151 200 151C233.3 151 266.7 151 300 151C333.3 151 366.7 151 400 151C433.3 151 466.7 151 500 151C533.3 151 566.7 151 600 151C633.3 151 666.7 151 700 151C733.3 151 766.7 151 800 151C833.3 151 866.7 151 900 151C933.3 151 966.7 151 1000 151C1033.3 151 1066.7 151 1100 151C1133.3 151 1166.7 151 1183.3 151L1200 151L1200 133L1183.3 131.7C1166.7 130.3 1133.3 127.7 1100 128.7C1066.7 129.7 1033.3 134.3 1000 135.8C966.7 137.3 933.3 135.7 900 134.7C866.7 133.7 833.3 133.3 800 133.3C766.7 133.3 733.3 133.7 700 132.8C666.7 132 633.3 130 600 130.3C566.7 130.7 533.3 133.3 500 134.2C466.7 135 433.3 134 400 134.5C366.7 135 333.3 137 300 136C266.7 135 233.3 131 200 130.5C166.7 130 133.3 133 100 134.5C66.7 136 33.3 136 16.7 136L0 136Z" fill="#f8f8f8"></path></svg>