<svg id="visual" viewBox="0 0 450 20" width="450" height="20" xmlns="http://www.w3.org/2000/svg" xmlns:xlink="http://www.w3.org/1999/xlink" version="1.1"><rect x="0" y="0" width="450" height="20" fill="#D2E8BA"></rect><path d="M0 7L10.7 7C21.3 7 42.7 7 64.2 7.8C85.7 8.7 107.3 10.3 128.8 10.7C150.3 11 171.7 10 193 9C214.3 8 235.7 7 257 7.7C278.3 8.3 299.7 10.7 321.2 11C342.7 11.3 364.3 9.7 385.8 9.2C407.3 8.7 428.7 9.3 439.3 9.7L450 10L450 21L439.3 21C428.7 21 407.3 21 385.8 21C364.3 21 342.7 21 321.2 21C299.7 21 278.3 21 257 21C235.7 21 214.3 21 193 21C171.7 21 150.3 21 128.8 21C107.3 21 85.7 21 64.2 21C42.7 21 21.3 21 10.7 21L0 21Z" fill="#FFF" stroke-linecap="round" stroke-linejoin="miter"></path></svg>